<svg id="Component_6_8" data-name="Component 6 – 8" xmlns="http://www.w3.org/2000/svg" width="47" height="47" viewBox="0 0 47 47">
  <g id="Group_6" data-name="Group 6" transform="translate(47) rotate(90)">
    <g id="Rectangle_8" data-name="Rectangle 8" fill="#f8f4ee" stroke="#c6c0b4" stroke-width="1">
      <rect width="47" height="47" rx="23.5" stroke="none"/>
      <rect x="0.5" y="0.5" width="46" height="46" rx="23" fill="none"/>
    </g>
    <path id="Icon_awesome-chevron-left" data-name="Icon awesome-chevron-left" d="M.316,9.057,9.058.316a1.08,1.08,0,0,1,1.527,0l1.02,1.02a1.079,1.079,0,0,1,0,1.525L4.678,9.82l6.928,6.96a1.079,1.079,0,0,1,0,1.525l-1.02,1.02a1.08,1.08,0,0,1-1.527,0L.316,10.584A1.08,1.08,0,0,1,.316,9.057Z" transform="translate(16.782 13.68)" fill="#463f2f"/>
  </g>
</svg>
