<svg xmlns="http://www.w3.org/2000/svg" xmlns:xlink="http://www.w3.org/1999/xlink" width="1177.7" height="1149.307" viewBox="0 0 1177.7 1149.307">
  <defs>
    <clipPath id="clip-path">
      <rect id="Rectangle_1149" data-name="Rectangle 1149" width="1171.658" height="1149.307" fill="none"/>
    </clipPath>
    <clipPath id="clip-path-2">
      <rect id="Rectangle_1150" data-name="Rectangle 1150" width="1171.658" height="1143.307" fill="none"/>
    </clipPath>
  </defs>
  <g id="Group_62" data-name="Group 62" transform="translate(0 2.999)">
    <g id="Group_49" data-name="Group 49" transform="translate(6.042 -2.999)">
      <g id="Group_48" data-name="Group 48" clip-path="url(#clip-path)">
        <path id="Path_645" data-name="Path 645" d="M613.7,446.47c-.535-8.843-.535-20.375-.545-29.948-.039-35.776,16.106-68.053,31.346-90.543,10.78-15.91,24.452-29.538,39.636-41.317a158.684,158.684,0,0,0-5.11-254.5C612.1-17.672,518.127-5.68,465.353,57.43a158.619,158.619,0,0,0,24.518,227.324l.139.107a151.623,151.623,0,0,1,34.017,35.808c15.309,23.034,33.569,58.369,33.61,95.913a269.522,269.522,0,0,1-1.051,28.425,152.766,152.766,0,0,1,27.156-2.07c9.155,0,21.167,2.229,29.959,3.533" transform="translate(-3.066 3.026)" fill="#fff"/>
        <path id="Path_646" data-name="Path 646" d="M613.7,446.47c-.535-8.843-.535-20.375-.545-29.948-.039-35.776,16.106-68.053,31.346-90.543,10.78-15.91,24.452-29.538,39.636-41.317a158.684,158.684,0,0,0-5.11-254.5C612.1-17.672,518.127-5.68,465.353,57.43a158.619,158.619,0,0,0,24.518,227.324l.139.107a151.623,151.623,0,0,1,34.017,35.808c15.309,23.034,33.569,58.369,33.61,95.913a269.522,269.522,0,0,1-1.051,28.425,152.766,152.766,0,0,1,27.156-2.07C592.9,442.937,604.909,445.166,613.7,446.47Z" transform="translate(-3.066 3.026)" fill="none" stroke="#383021" stroke-width="1"/>
        <path id="Path_647" data-name="Path 647" d="M711.625,522.649c7.254-6.6,16.7-14.232,25.094-20.851,28.092-22.153,63.441-29.423,90.54-31.353,19.169-1.364,38.334.953,56.981,5.6A158.683,158.683,0,0,0,1081.09,314.66c-3.794-82.18-71.325-148.616-153.556-151.066A158.616,158.616,0,0,0,764.042,323.429c0,.058,0,.117,0,.175a151.574,151.574,0,0,1-7.107,48.875c-8.636,26.274-25.114,62.475-54.595,85.723-8.92,7.034-17.533,13.691-26.059,19.648a145.092,145.092,0,0,1,35.343,44.8" transform="translate(-1.343 4.156)" fill="#fff"/>
        <path id="Path_648" data-name="Path 648" d="M711.625,522.649c7.254-6.6,16.7-14.232,25.094-20.851,28.092-22.153,63.441-29.423,90.54-31.353,19.169-1.364,38.334.953,56.981,5.6A158.683,158.683,0,0,0,1081.09,314.66c-3.794-82.18-71.325-148.616-153.556-151.066A158.616,158.616,0,0,0,764.042,323.429c0,.058,0,.117,0,.175a151.574,151.574,0,0,1-7.107,48.875c-8.636,26.274-25.114,62.475-54.595,85.723-8.92,7.034-17.533,13.691-26.059,19.648A145.092,145.092,0,0,1,711.625,522.649Z" transform="translate(-1.343 4.156)" fill="none" stroke="#383021" stroke-width="1"/>
        <path id="Path_649" data-name="Path 649" d="M490.282,475.511c-8.768-6.087-17.623-12.916-26.8-20.155C434,432.11,417.522,395.914,408.886,369.64a151.637,151.637,0,0,1-7.109-48.881c0-.059,0-.118,0-.176A158.619,158.619,0,0,0,238.285,160.747C156.053,163.2,88.522,229.635,84.729,311.815A158.676,158.676,0,0,0,286.262,471.957a134.516,134.516,0,0,1,38.044-4.943c27.858.313,71.442,5.636,104.8,31.937,8.729,6.884,16.942,13.594,24.431,20.473a182.9,182.9,0,0,1,36.751-43.913" transform="translate(-5.454 4.136)" fill="#fff"/>
        <path id="Path_650" data-name="Path 650" d="M490.282,475.511c-8.768-6.087-17.623-12.916-26.8-20.155C434,432.11,417.522,395.914,408.886,369.64a151.637,151.637,0,0,1-7.109-48.881c0-.059,0-.118,0-.176A158.619,158.619,0,0,0,238.285,160.747C156.053,163.2,88.522,229.635,84.729,311.815A158.676,158.676,0,0,0,286.262,471.957a134.516,134.516,0,0,1,38.044-4.943c27.858.313,71.442,5.636,104.8,31.937,8.729,6.884,16.942,13.594,24.431,20.473A182.9,182.9,0,0,1,490.282,475.511Z" transform="translate(-5.454 4.136)" fill="none" stroke="#383021" stroke-width="1"/>
        <path id="Path_651" data-name="Path 651" d="M404.787,597.367c-36.714,7.843-75.094-2.589-100.829-12.719A151.6,151.6,0,0,1,261.8,558.908l-.135-.113a158.616,158.616,0,0,0-227.4,23.764C-16.358,647.409-8.35,741.8,52.475,797.2a158.684,158.684,0,0,0,249.9-48.446c8.327-17.32,18.782-33.549,32.072-47.43,18.789-19.622,46.956-42.185,81.941-49.66,11.085-2.368,21.683-4.429,31.941-5.8a181.146,181.146,0,0,1-12.177-55.889c-9.909,2.711-20.4,5.053-31.363,7.4" transform="translate(-6.035 6.642)" fill="#fff"/>
        <path id="Path_652" data-name="Path 652" d="M404.787,597.367c-36.714,7.843-75.094-2.589-100.829-12.719A151.6,151.6,0,0,1,261.8,558.908l-.135-.113a158.616,158.616,0,0,0-227.4,23.764C-16.358,647.409-8.35,741.8,52.475,797.2a158.684,158.684,0,0,0,249.9-48.446c8.327-17.32,18.782-33.549,32.072-47.43,18.789-19.622,46.956-42.185,81.941-49.66,11.085-2.368,21.683-4.429,31.941-5.8a181.146,181.146,0,0,1-12.177-55.889C426.241,592.683,415.748,595.025,404.787,597.367Z" transform="translate(-6.035 6.642)" fill="none" stroke="#383021" stroke-width="1"/>
        <path id="Path_653" data-name="Path 653" d="M1126.518,574.769a158.618,158.618,0,0,0-227.757-20.141l-.132.115a151.588,151.588,0,0,1-41.74,26.408c-25.569,10.539-63.779,21.582-100.614,14.324-9.7-1.912-19.93-4.019-28.83-6.2-.651,23.459-4.736,38.314-11.685,55.654,9.581,1.211,19.468,2.984,29.781,5.016,35.1,6.916,63.623,29.027,82.722,48.349,13.51,13.667,24.221,29.727,32.824,46.913a158.684,158.684,0,0,0,250.636,44.461c59.935-56.355,66.441-150.864,14.794-214.9" transform="translate(-1.069 6.602)" fill="#fff"/>
        <path id="Path_654" data-name="Path 654" d="M1126.518,574.769a158.618,158.618,0,0,0-227.757-20.141l-.132.115a151.588,151.588,0,0,1-41.74,26.408c-25.569,10.539-63.779,21.582-100.614,14.324-9.7-1.912-19.93-4.019-28.83-6.2-.651,23.459-4.736,38.314-11.685,55.654,9.581,1.211,19.468,2.984,29.781,5.016,35.1,6.916,63.623,29.027,82.722,48.349,13.51,13.667,24.221,29.727,32.824,46.913a158.684,158.684,0,0,0,250.636,44.461C1171.659,733.314,1178.165,638.805,1126.518,574.769Z" transform="translate(-1.069 6.602)" fill="none" stroke="#383021" stroke-width="1"/>
        <path id="Path_655" data-name="Path 655" d="M478.494,734.5c-16.506,33.72-48.414,57.461-72.276,71.445a151.655,151.655,0,0,1-46.28,17.258l-.172.035a158.619,158.619,0,0,0-121.758,193.528c19.739,79.864,98.926,131.863,180.057,118.238A158.682,158.682,0,0,0,534.3,908.54c-8.478-17.246-14.785-35.491-17.494-54.516-3.829-26.9-4.179-62.985,11.551-95.118,5.239-10.7,10.42-20.761,15.986-30.057a181.319,181.319,0,0,1-51.722-25c-4.118,9.918-8.955,20.079-14.129,30.65" transform="translate(-4.421 7.91)" fill="#fff"/>
        <path id="Path_656" data-name="Path 656" d="M478.494,734.5c-16.506,33.72-48.414,57.461-72.276,71.445a151.655,151.655,0,0,1-46.28,17.258l-.172.035a158.619,158.619,0,0,0-121.758,193.528c19.739,79.864,98.926,131.863,180.057,118.238A158.682,158.682,0,0,0,534.3,908.54c-8.478-17.246-14.785-35.491-17.494-54.516-3.829-26.9-4.179-62.985,11.551-95.118,5.239-10.7,10.42-20.761,15.986-30.057a181.319,181.319,0,0,1-51.722-25C488.5,713.764,483.668,723.925,478.494,734.5Z" transform="translate(-4.421 7.91)" fill="none" stroke="#383021" stroke-width="1"/>
        <path id="Path_657" data-name="Path 657" d="M635.9,758.119c17.061,35.523,14.578,75.7,9.52,103.083a164.425,164.425,0,0,1-15.875,45.106,159.062,159.062,0,0,0-15.841,49.546c-11.789,79.861,39.524,156.753,117.768,176.621a158.615,158.615,0,1,0,72.537-308.767l-.172-.037a151.6,151.6,0,0,1-46.15-17.6c-23.756-14.163-55.485-38.142-71.739-71.984-5.105-10.63-9.957-21.876-14.007-31.843-15.47,11.091-32.9,20.5-51.46,26.337,5.269,9.055,10.448,19.189,15.42,29.542" transform="translate(-1.79 7.899)" fill="#fff"/>
        <path id="Path_658" data-name="Path 658" d="M635.9,758.119c17.061,35.523,14.578,75.7,9.52,103.083a164.425,164.425,0,0,1-15.875,45.106,159.062,159.062,0,0,0-15.841,49.546c-11.789,79.861,39.524,156.753,117.768,176.621a158.615,158.615,0,1,0,72.537-308.767l-.172-.037a151.6,151.6,0,0,1-46.15-17.6c-23.756-14.163-55.485-38.142-71.739-71.984-5.105-10.63-9.957-21.876-14.007-31.843-15.47,11.091-32.9,20.5-51.46,26.337C625.752,737.631,630.93,747.766,635.9,758.119Z" transform="translate(-1.79 7.899)" fill="none" stroke="#383021" stroke-width="1"/>
        <path id="Path_659" data-name="Path 659" d="M748.315,588.057A166.818,166.818,0,1,1,581.5,421.238,166.819,166.819,0,0,1,748.315,588.057" transform="translate(-3.161 5.946)" fill="#fff" stroke="#463f2f" stroke-width="1"/>
        <path id="Path_660" data-name="Path 660" d="M1082.152,321.456A160.782,160.782,0,1,1,921.369,160.674a160.782,160.782,0,0,1,160.782,160.782" transform="translate(-0.757 4.136)" fill="#fff" stroke="#463f2f" stroke-width="1"/>
        <path id="Path_661" data-name="Path 661" d="M747.727,161.783A160.782,160.782,0,1,1,586.944,1,160.782,160.782,0,0,1,747.727,161.783" transform="translate(-3.081 3.027)" fill="#fff" stroke="#463f2f" stroke-width="1"/>
        <path id="Path_662" data-name="Path 662" d="M402.635,321.456A160.782,160.782,0,1,1,241.852,160.674,160.782,160.782,0,0,1,402.635,321.456" transform="translate(-5.478 4.136)" fill="#fff" stroke="#463f2f" stroke-width="1"/>
        <path id="Path_663" data-name="Path 663" d="M322.564,680.047A160.782,160.782,0,1,1,161.781,519.265,160.782,160.782,0,0,1,322.564,680.047" transform="translate(-6.035 6.627)" fill="#fff" stroke="#463f2f" stroke-width="1"/>
        <path id="Path_664" data-name="Path 664" d="M552.749,975.856A160.782,160.782,0,1,1,391.966,815.074,160.782,160.782,0,0,1,552.749,975.856" transform="translate(-4.436 8.683)" fill="#fff" stroke="#463f2f" stroke-width="1"/>
        <path id="Path_665" data-name="Path 665" d="M931.462,975.856A160.782,160.782,0,1,1,770.679,815.074,160.782,160.782,0,0,1,931.462,975.856" transform="translate(-1.804 8.683)" fill="#fff" stroke="#463f2f" stroke-width="1"/>
        <path id="Path_666" data-name="Path 666" d="M1164.793,674.236A160.782,160.782,0,1,1,1004.01,513.454a160.782,160.782,0,0,1,160.782,160.782" transform="translate(-0.183 6.587)" fill="#fff"/>
        <circle id="Ellipse_12" data-name="Ellipse 12" cx="160.782" cy="160.782" r="160.782" transform="translate(843.045 520.041)" fill="none" stroke="#463f2f" stroke-width="1"/>
        <path id="Path_667" data-name="Path 667" d="M258.449,208.191v-2.36a9.441,9.441,0,0,0-9.441-9.441H232.486a9.441,9.441,0,0,0-9.441,9.441v2.36h-8.261a9.441,9.441,0,0,0-9.441,9.441v35.4a9.441,9.441,0,0,0,9.441,9.441h27.65a23.115,23.115,0,0,1-3.5-4.721H221.865V212.912H259.63V223.54a23.024,23.024,0,0,1,4.721.608V212.912h2.36a4.721,4.721,0,0,1,4.721,4.721v9.519a23.122,23.122,0,0,1,4.72,4.013V217.633a9.441,9.441,0,0,0-9.44-9.441Zm-30.684,0h25.963v-2.36a4.721,4.721,0,0,0-4.721-4.721H232.486a4.721,4.721,0,0,0-4.721,4.721Zm-12.982,4.721h2.36v44.845h-2.36a4.721,4.721,0,0,1-4.721-4.721v-35.4a4.721,4.721,0,0,1,4.721-4.721" transform="translate(-4.372 -3.905)" fill="#383021" fill-rule="evenodd"/>
        <path id="Path_668" data-name="Path 668" d="M253.4,243.3a4.72,4.72,0,1,1,4.72,4.721,4.72,4.72,0,0,1-4.72-4.721" transform="translate(-4.039 -3.612)" fill="#383021"/>
        <path id="Path_669" data-name="Path 669" d="M244.018,243.368a14.162,14.162,0,1,1,28.323,0,29.812,29.812,0,0,1-3.746,13.018,21.075,21.075,0,0,1-4.248,5.592,8.537,8.537,0,0,1-12.334,0,21.076,21.076,0,0,1-4.248-5.592,29.809,29.809,0,0,1-3.747-13.017m14.162-9.441a9.441,9.441,0,0,0-9.441,9.441,25.242,25.242,0,0,0,3.168,10.753,16.431,16.431,0,0,0,3.252,4.335,3.9,3.9,0,0,0,6.042,0,16.431,16.431,0,0,0,3.252-4.335,25.243,25.243,0,0,0,3.168-10.753,9.441,9.441,0,0,0-9.441-9.441" transform="translate(-4.104 -3.677)" fill="#383021" fill-rule="evenodd"/>
      </g>
    </g>
    <text id="Israël_tours" data-name="Israël tours" transform="translate(180.533 293.033)" fill="#f0771d" font-size="22" font-family="Inter" font-weight="500"><tspan x="0" y="0">Is</tspan><tspan y="0" letter-spacing="-0.004em">r</tspan><tspan y="0">aël tours</tspan></text>
    <text id="Israël_tours-2" data-name="Israël tours" transform="translate(527.426 128.989)" fill="#f0771d" font-size="22" font-family="Inter" font-weight="500"><tspan x="0" y="0">Is</tspan><tspan y="0" letter-spacing="-0.004em">r</tspan><tspan y="0">aël tours</tspan></text>
    <text id="Providing_workshops" data-name="Providing workshops" transform="translate(815.721 293.03)" fill="#f0771d" font-size="22" font-family="Inter" font-weight="500"><tspan x="0" y="0">Providing workshops</tspan></text>
    <g id="Group_51" data-name="Group 51" transform="translate(0 0.022)">
      <g id="Group_50" data-name="Group 50" transform="translate(0 0)" clip-path="url(#clip-path-2)">
        <path id="Path_670" data-name="Path 670" d="M935.277,203.623a23.751,23.751,0,0,0-28.494.308c-11.024,8.689-12.846,26.578-.54,36.689v11.837a6.24,6.24,0,0,0,6.247,6.232c.09,0,.18,0,.27-.006,0,5.792,4.184,9.015,8.452,9.015,4.251,0,8.453-3.2,8.453-9.015a6.244,6.244,0,0,0,6.511-5.964c0-.087.005-.174.006-.262V240.623c12.463-10.237,10.454-28.431-.906-37m-14.062,59.284c-1.825,0-3.663-1.255-3.663-4.225h7.326c0,2.82-1.7,4.225-3.662,4.225m10.179-10.451a1.439,1.439,0,0,1-1.439,1.439H912.47a1.439,1.439,0,0,1-1.439-1.439V249.67h20.36v2.786Zm.966-14.922a2.393,2.393,0,0,0-.966,1.922v5.423h-7.785V233.7l5.818-10.078a2.395,2.395,0,1,0-4.148-2.395l-4.065,7.041-4.066-7.042A2.395,2.395,0,1,0,913,223.62L918.82,233.7v11.181h-7.786v-5.421a2.4,2.4,0,0,0-.966-1.922c-10.788-8.025-9.188-22.855-.319-29.842a19,19,0,0,1,22.644-.245c9.113,6.874,10.9,21.952-.034,30.087Z" transform="translate(6.237 -6.674)" fill="#383021"/>
      </g>
    </g>
    <text id="Discipleship" transform="translate(945.54 648.833)" fill="#f0771d" font-size="22" font-family="Inter" font-weight="500"><tspan x="0" y="0">Discipleship</tspan></text>
    <g id="Group_53" data-name="Group 53" transform="translate(0 0.022)">
      <g id="Group_52" data-name="Group 52" transform="translate(0 0)" clip-path="url(#clip-path-2)">
        <path id="Path_671" data-name="Path 671" d="M1036.392,583.309a18.527,18.527,0,0,0-8.782-10.087,13.234,13.234,0,1,0-17.281-.011,18.469,18.469,0,0,0-4.551,3.4,13.269,13.269,0,0,0-5.248,0,18.469,18.469,0,0,0-4.551-3.4,13.232,13.232,0,1,0-17.281.011,18.519,18.519,0,0,0-8.784,10.087,6.7,6.7,0,0,0,6.319,8.951H990.2a13.239,13.239,0,0,0,4.324,7.336,18.516,18.516,0,0,0-8.782,10.087,6.7,6.7,0,0,0,6.319,8.953h22.194a6.7,6.7,0,0,0,6.322-8.953,18.522,18.522,0,0,0-8.785-10.087,13.24,13.24,0,0,0,4.323-7.335h13.963a6.7,6.7,0,0,0,6.318-8.95Zm-25.284-20.1a7.867,7.867,0,1,1,7.867,7.866,7.866,7.866,0,0,1-7.867-7.866m-31.645,0a7.866,7.866,0,1,1,7.866,7.866,7.866,7.866,0,0,1-7.866-7.866m-4.5,21.925a13.169,13.169,0,0,1,20.213-6.1A13.251,13.251,0,0,0,990.2,586.9H976.236a1.338,1.338,0,0,1-1.27-1.769Zm40.561,26.371a1.336,1.336,0,0,1-.832,1.7,1.351,1.351,0,0,1-.438.072h-22.2a1.338,1.338,0,0,1-1.27-1.769,13.148,13.148,0,0,1,24.739,0Zm-20.236-21.925a7.866,7.866,0,1,1,7.866,7.866,7.867,7.867,0,0,1-7.866-7.866Zm34.787-2.681h-13.963a13.25,13.25,0,0,0-4.977-7.865,13.168,13.168,0,0,1,20.214,6.1,1.336,1.336,0,0,1-.832,1.7,1.351,1.351,0,0,1-.438.072Z" transform="translate(3.715 -4.236)" fill="#383021"/>
      </g>
    </g>
    <text id="Leadership_development" data-name="Leadership development" transform="translate(648.469 949.046)" fill="#f0771d" font-size="22" font-family="Inter" font-weight="500"><tspan x="0" y="0">Leadership development</tspan></text>
    <g id="Group_55" data-name="Group 55" transform="translate(0 0.022)">
      <g id="Group_54" data-name="Group 54" transform="translate(0 0)" clip-path="url(#clip-path-2)">
        <path id="Path_672" data-name="Path 672" d="M796.955,892.013a7.567,7.567,0,0,0-2.732-1.756,7.627,7.627,0,0,0-3.73-11.493,7.615,7.615,0,0,0-3.746-11.025l4.085-4.085a7.62,7.62,0,0,0-10.776-10.776l-13.174,13.169a7.625,7.625,0,0,0-12.484-2.6l-11.08,11.083a19.965,19.965,0,0,0,0,28.236l12.716,12.714a19.966,19.966,0,0,0,28.235,0v0l12.685-12.687a7.63,7.63,0,0,0,0-10.776m-3.233,7.544-12.685,12.686a15.393,15.393,0,0,1-21.768,0h0l-12.717-12.717a15.393,15.393,0,0,1,0-21.769l11.08-11.081a3.048,3.048,0,0,1,4.312,4.31l-8.622,8.622,3.233,3.233,8.621-8.622,18.108-18.1a3.049,3.049,0,0,1,4.317,4.307l-15.294,15.293-1.218,1.212,3.234,3.233,7.484-7.484a3.048,3.048,0,0,1,4.311,4.311l-3.571,3.571-3.912,3.912,3.233,3.233,3.91-3.911a3.049,3.049,0,0,1,4.312,4.311l-3.915,3.911,3.234,3.233a3.048,3.048,0,0,1,4.311,4.311Z" transform="translate(5.124 -3.153)" fill="#383021"/>
      </g>
    </g>
    <text id="Raising_support" data-name="Raising support" transform="translate(311.532 956.095)" fill="#f0771d" font-size="22" font-family="Inter" font-weight="500"><tspan x="0" y="0">Raising support</tspan></text>
    <g id="Group_57" data-name="Group 57" transform="translate(0 0.022)">
      <g id="Group_56" data-name="Group 56" transform="translate(0 0)" clip-path="url(#clip-path-2)">
        <path id="Path_673" data-name="Path 673" d="M427.844,879.6v-9.242a2.111,2.111,0,0,0-.637-1.51l-18.028-17.6a2.112,2.112,0,0,0-2.968.018l-4.847,4.842-7.8.969a10.894,10.894,0,0,0-1.8.393,10.726,10.726,0,0,0-1.786-.392l-7.8-.97-4.86-4.859a2.112,2.112,0,0,0-2.973-.015l-17.947,17.617a2.106,2.106,0,0,0-.638,1.5v9.233c-.035.9-.086,8.026,6.639,14.752l2.344,2.343c-.02.212-.031.427-.031.642a6.553,6.553,0,0,0,3.961,6.023,6.559,6.559,0,0,0,9.148,9.155,6.554,6.554,0,0,0,5.811,3.952,6.563,6.563,0,0,0,11.19,4.331l1.717-1.7a6.518,6.518,0,0,0,1.681-2.868,6.569,6.569,0,0,0,7.569-3.777,6.56,6.56,0,0,0,9.155-9.149,6.577,6.577,0,0,0,3.961-6.028c0-.215-.011-.43-.031-.643l2.28-2.28c6.739-6.745,6.722-13.893,6.7-14.743M369.62,898.981a2.335,2.335,0,0,1,0-3.3l1.706-1.706a2.335,2.335,0,1,1,3.324,3.282l-.021.022-1.706,1.7a2.337,2.337,0,0,1-3.3,0m6.042,9.842a2.335,2.335,0,0,1-3.431-3.17c.041-.044.084-.088.128-.128l5.24-5.245a2.334,2.334,0,1,1,3.336,3.267Zm9.842,2.737a2.335,2.335,0,0,1-3.344-3.257l1.771-1.773a2.336,2.336,0,0,1,3.281,3.325Zm8.041,4.536-1.7,1.707a2.336,2.336,0,1,1-3.3-3.3l1.706-1.706a2.336,2.336,0,0,1,3.3,3.3Zm20.439-17.184a2.334,2.334,0,0,1-3.3,0l-14.019-14.018a2.112,2.112,0,0,0-2.985,2.987l17.565,17.569a2.336,2.336,0,0,1-3.3,3.3l-17.568-17.568a2.113,2.113,0,0,0-3,2.977l.011.011,14.019,14.016a2.336,2.336,0,0,1-3.3,3.307l-.92-.93a6.547,6.547,0,0,0-5.077-2.671,6.551,6.551,0,0,0-6.3-6.241,6.557,6.557,0,0,0-6.274-6.272,6.556,6.556,0,0,0-11.19-4.394l-1.663,1.661-1.29-1.286c-5.576-5.575-5.421-11.245-5.4-11.589v-8.527l15.82-15.53,3.894,3.9a2.114,2.114,0,0,0,1.234.6l4.936.611-.021.022-12.492,12.493a2.111,2.111,0,0,0,.005,2.987c.037.037.076.073.116.108a18.857,18.857,0,0,0,4.457,2.733c3.7,1.56,7.014,1.139,9.341-1.188L389,876.254a12.222,12.222,0,0,0,7.082,2.236c.258,0,.514-.011.769-.027l17.136,17.147a2.336,2.336,0,0,1,0,3.3Zm4.169-7.55-1.223,1.221L401.555,877.2a12.308,12.308,0,0,0,3.214-2.316,2.113,2.113,0,0,0-2.988-2.988,8.075,8.075,0,0,1-11.42,0,2.112,2.112,0,0,0-2.987,0l-3.091,3.1c-1.664,1.663-4.346.6-6.153-.453l10.7-10.7a11.016,11.016,0,0,1,5.247-2.563l8.528-1.058a2.112,2.112,0,0,0,1.233-.6l3.884-3.883,15.9,15.519v8.5c.007.058.249,5.888-5.467,11.608" transform="translate(2.472 -1.14)" fill="#383021"/>
      </g>
    </g>
    <text id="Itinerant_speaking" data-name="Itinerant speaking" transform="translate(67.618 658.65)" fill="#f0771d" font-size="22" font-family="Inter" font-weight="500"><tspan x="0" y="0">Itine</tspan><tspan y="0" letter-spacing="-0.004em">r</tspan><tspan y="0">ant speaking</tspan></text>
    <g id="Group_59" data-name="Group 59" transform="translate(0 0.022)">
      <g id="Group_58" data-name="Group 58" transform="translate(0 0)" clip-path="url(#clip-path-2)">
        <path id="Path_674" data-name="Path 674" d="M196.422,611.95l-3.876-11.094A30.459,30.459,0,0,0,142.6,566.373a30.463,30.463,0,0,0-20.905,45.056l-3.877,11.091a2.311,2.311,0,0,0,2.634,3.028l12.966-2.564A30.441,30.441,0,0,0,171.6,615.74a31.905,31.905,0,0,0,9.229-3.32l12.968,2.565a2.311,2.311,0,0,0,2.629-3.029Zm-48.277,10.212a25.8,25.8,0,0,1-13.156-3.6,2.311,2.311,0,0,0-1.627-.279l-9.851,1.945,2.9-8.3a2.31,2.31,0,0,0-.22-1.983,25.831,25.831,0,1,1,21.954,12.211Zm39.683-20.8,2.9,8.29-9.852-1.947a2.3,2.3,0,0,0-1.626.279,26.2,26.2,0,0,1-3.817,1.848A30.448,30.448,0,0,0,149.542,565.9a25.845,25.845,0,0,1,38.506,33.481,2.308,2.308,0,0,0-.22,1.982Z" transform="translate(0.818 -5.206)" fill="#383021"/>
        <path id="Path_675" data-name="Path 675" d="M130.422,590.448a2.311,2.311,0,0,0-2.311,2.311V599.4a2.311,2.311,0,0,0,4.622,0v-6.644a2.311,2.311,0,0,0-2.311-2.311" transform="translate(0.89 -4.961)" fill="#383021"/>
        <path id="Path_676" data-name="Path 676" d="M139.186,585.627a2.311,2.311,0,0,0-2.311,2.31V604.29a2.311,2.311,0,0,0,4.622,0V587.937a2.311,2.311,0,0,0-2.311-2.31" transform="translate(0.951 -4.995)" fill="#383021"/>
        <path id="Path_677" data-name="Path 677" d="M147.951,590.448a2.311,2.311,0,0,0-2.311,2.31h0V599.4a2.31,2.31,0,0,0,4.621,0v-6.644a2.31,2.31,0,0,0-2.31-2.311" transform="translate(1.012 -4.961)" fill="#383021"/>
        <path id="Path_678" data-name="Path 678" d="M156.715,587.905a2.311,2.311,0,0,0-2.311,2.311v11.765a2.31,2.31,0,0,0,4.621,0V590.216a2.31,2.31,0,0,0-2.31-2.311" transform="translate(1.073 -4.979)" fill="#383021"/>
        <path id="Path_679" data-name="Path 679" d="M165.48,592.275a2.311,2.311,0,0,0-2.311,2.311v2.963a2.311,2.311,0,0,0,4.622,0v-2.963a2.311,2.311,0,0,0-2.311-2.311" transform="translate(1.134 -4.949)" fill="#383021"/>
      </g>
    </g>
    <text id="Father_s_house" data-name="Father’s house" transform="translate(509.067 513.875)" fill="#f0771d" font-size="22" font-family="Inter" font-weight="500"><tspan x="0" y="0">Father’s house</tspan></text>
    <text id="The_Ministry" data-name="The Ministry" transform="translate(467.35 560.497)" fill="#383021" font-size="40" font-family="Inter" font-weight="600"><tspan x="0" y="0">The Minist</tspan><tspan y="0" letter-spacing="0.017em">r</tspan><tspan y="0">y</tspan></text>
    <g id="Group_61" data-name="Group 61" transform="translate(0 0.022)">
      <g id="Group_60" data-name="Group 60" transform="translate(0 0)" clip-path="url(#clip-path-2)">
        <circle id="Ellipse_13" data-name="Ellipse 13" cx="154.787" cy="154.787" r="154.787" transform="translate(429.591 436.196)" fill="none" stroke="#f0771d" stroke-width="1"/>
        <path id="Path_680" data-name="Path 680" d="M606.419,39.478H569.163a7.451,7.451,0,0,0-7.444,7.441V88.292c0,2.524.024,5.051,0,7.575-.033,3.429,1.215,6.34,4.279,8.065,2.826,1.591,6.176,1.361,9.254,1.361h31.167a3.871,3.871,0,0,0,3.868-3.866V43.344a3.871,3.871,0,0,0-3.868-3.866M568.8,100.308l-.161-.067a3.925,3.925,0,0,1-1.857-1.838l-.075-.182c-.056-.139-.116-.291-.156-.414a3.673,3.673,0,0,1-.171-1.141,3.931,3.931,0,0,1,3.943-3.917h35.3v2.116H572.96c-1.286,0-2.275.616-2.275,1.827,0,1.163.989,1.827,2.275,1.827h32.667v2.116h-35.3a3.536,3.536,0,0,1-1.1-.164c-.136-.044-.281-.1-.422-.161m36.828-12.22h-35.3a8.557,8.557,0,0,0-3.943.965V46.919a2.785,2.785,0,0,1,2.784-2.78h36.464Z" transform="translate(-0.174 -10.803)" fill="#383021"/>
      </g>
    </g>
    <text id="Lorem_ipsum_dolor_sit_amet_sed_do_tempor_ut_labore_et_dolore._Lorem_ipsum_dolor_sit_amet_sed_do_eiusmod_tempor_incididunt_ut_labore_et_dolore." data-name="Lorem ipsum dolor sit amet, sed do tempor ut labore et dolore. Lorem ipsum dolor sit amet, sed do eiusmod tempor incididunt ut labore et dolore." transform="translate(110.55 308.99)" fill="#463f2f" font-size="16" font-family="Inter"><tspan x="7" y="16">Lorem ipsum dolor sit amet, sed </tspan><tspan x="15" y="42">do tempor ut labore et dolore. </tspan><tspan x="7" y="68">Lorem ipsum dolor sit amet, sed </tspan><tspan x="5" y="94">do eiusmod tempor incididunt ut </tspan><tspan x="66" y="120">labore et dolore.</tspan></text>
    <text id="Lorem_ipsum_dolor_sit_amet_sed_do_tempor_ut_labore_et_dolore._Lorem_ipsum_dolor_sit_amet_sed_do_eiusmod_tempor_incididunt_ut_labore_et_dolore.-2" data-name="Lorem ipsum dolor sit amet, sed do tempor ut labore et dolore. Lorem ipsum dolor sit amet, sed do eiusmod tempor incididunt ut labore et dolore." transform="translate(32.878 672.128)" fill="#463f2f" font-size="16" font-family="Inter"><tspan x="7" y="16">Lorem ipsum dolor sit amet, sed </tspan><tspan x="15" y="42">do tempor ut labore et dolore. </tspan><tspan x="7" y="68">Lorem ipsum dolor sit amet, sed </tspan><tspan x="5" y="94">do eiusmod tempor incididunt ut </tspan><tspan x="66" y="120">labore et dolore.</tspan></text>
    <text id="Lorem_ipsum_dolor_sit_amet_sed_do_tempor_ut_labore_et_dolore._Lorem_ipsum_dolor_sit_amet_sed_do_eiusmod_tempor_incididunt_ut_labore_et_dolore.-3" data-name="Lorem ipsum dolor sit amet, sed do tempor ut labore et dolore. Lorem ipsum dolor sit amet, sed do eiusmod tempor incididunt ut labore et dolore." transform="translate(264.709 969.573)" fill="#463f2f" font-size="16" font-family="Inter"><tspan x="7" y="16">Lorem ipsum dolor sit amet, sed </tspan><tspan x="15" y="42">do tempor ut labore et dolore. </tspan><tspan x="7" y="68">Lorem ipsum dolor sit amet, sed </tspan><tspan x="5" y="94">do eiusmod tempor incididunt ut </tspan><tspan x="66" y="120">labore et dolore.</tspan></text>
    <text id="Lorem_ipsum_dolor_sit_amet_sed_do_tempor_ut_labore_et_dolore._Lorem_ipsum_dolor_sit_amet_sed_do_eiusmod_tempor_incididunt_ut_labore_et_dolore.-4" data-name="Lorem ipsum dolor sit amet, sed do tempor ut labore et dolore. Lorem ipsum dolor sit amet, sed do eiusmod tempor incididunt ut labore et dolore." transform="translate(645.67 966.31)" fill="#463f2f" font-size="16" font-family="Inter"><tspan x="7" y="16">Lorem ipsum dolor sit amet, sed </tspan><tspan x="15" y="42">do tempor ut labore et dolore. </tspan><tspan x="7" y="68">Lorem ipsum dolor sit amet, sed </tspan><tspan x="5" y="94">do eiusmod tempor incididunt ut </tspan><tspan x="66" y="120">labore et dolore.</tspan></text>
    <text id="Lorem_ipsum_dolor_sit_amet_sed_do_tempor_ut_labore_et_dolore._Lorem_ipsum_dolor_sit_amet_sed_do_eiusmod_tempor_incididunt_ut_labore_et_dolore.-5" data-name="Lorem ipsum dolor sit amet, sed do tempor ut labore et dolore. Lorem ipsum dolor sit amet, sed do eiusmod tempor incididunt ut labore et dolore." transform="translate(880.088 663.278)" fill="#463f2f" font-size="16" font-family="Inter"><tspan x="7" y="16">Lorem ipsum dolor sit amet, sed </tspan><tspan x="15" y="42">do tempor ut labore et dolore. </tspan><tspan x="7" y="68">Lorem ipsum dolor sit amet, sed </tspan><tspan x="5" y="94">do eiusmod tempor incididunt ut </tspan><tspan x="66" y="120">labore et dolore.</tspan></text>
    <text id="Lorem_ipsum_dolor_sit_amet_sed_do_tempor_ut_labore_et_dolore._Lorem_ipsum_dolor_sit_amet_sed_do_eiusmod_tempor_incididunt_ut_labore_et_dolore.-6" data-name="Lorem ipsum dolor sit amet, sed do tempor ut labore et dolore. Lorem ipsum dolor sit amet, sed do eiusmod tempor incididunt ut labore et dolore." transform="translate(796.589 309.147)" fill="#463f2f" font-size="16" font-family="Inter"><tspan x="7" y="16">Lorem ipsum dolor sit amet, sed </tspan><tspan x="15" y="42">do tempor ut labore et dolore. </tspan><tspan x="7" y="68">Lorem ipsum dolor sit amet, sed </tspan><tspan x="5" y="94">do eiusmod tempor incididunt ut </tspan><tspan x="66" y="120">labore et dolore.</tspan></text>
    <text id="Lorem_ipsum_dolor_sit_amet_sed_do_tempor_ut_labore_et_dolore._Lorem_ipsum_dolor_sit_amet_sed_do_eiusmod_tempor_incididunt_ut_labore_et_dolore.-7" data-name="Lorem ipsum dolor sit amet, sed do tempor ut labore et dolore. Lorem ipsum dolor sit amet, sed do eiusmod tempor incididunt ut labore et dolore." transform="translate(457.443 146.165)" fill="#463f2f" font-size="16" font-family="Inter"><tspan x="7" y="16">Lorem ipsum dolor sit amet, sed </tspan><tspan x="15" y="42">do tempor ut labore et dolore. </tspan><tspan x="7" y="68">Lorem ipsum dolor sit amet, sed </tspan><tspan x="5" y="94">do eiusmod tempor incididunt ut </tspan><tspan x="66" y="120">labore et dolore.</tspan></text>
    <text id="Lorem_ipsum_dolor_sit_amet_sed_do_tempor_ut_labore_et_dolore._Lorem_ipsum_dolor_sit_amet_sed_eiusmod_tempor_incididunt_labore_et_dolore." data-name="Lorem ipsum dolor sit amet, sed do tempor ut labore et dolore. Lorem ipsum dolor sit amet, sed 
 eiusmod tempor incididunt
labore et dolore." transform="translate(457.443 577.87)" fill="#463f2f" font-size="16" font-family="Inter"><tspan x="7" y="16">Lorem ipsum dolor sit amet, sed </tspan><tspan x="15" y="42">do tempor ut labore et dolore. </tspan><tspan x="7" y="68">Lorem ipsum dolor sit amet, sed </tspan><tspan x="25" y="94" xml:space="preserve"> eiusmod tempor incididunt</tspan><tspan x="66" y="120">labore et dolore.</tspan></text>
  </g>
</svg>
