<svg xmlns="http://www.w3.org/2000/svg" width="396.001" height="386.606" viewBox="0 0 396.001 386.606">
  <g id="Group_63" data-name="Group 63" transform="translate(-14.967 -4012.28)">
    <path id="Path_681" data-name="Path 681" d="M490.914,151.362c-.181-2.986-.181-6.88-.184-10.113-.013-12.081,5.439-22.981,10.585-30.575A61.5,61.5,0,0,1,514.7,96.721a53.567,53.567,0,1,0-65.6.031l.047.036a51.2,51.2,0,0,1,11.487,12.092c5.17,7.778,11.336,19.711,11.35,32.389a91.026,91.026,0,0,1-.355,9.6,51.587,51.587,0,0,1,9.17-.7,76.663,76.663,0,0,1,10.117,1.193" transform="translate(-267.518 4011.929)" fill="#fff"/>
    <path id="Path_682" data-name="Path 682" d="M490.914,151.362c-.181-2.986-.181-6.88-.184-10.113-.013-12.081,5.439-22.981,10.585-30.575A61.5,61.5,0,0,1,514.7,96.721a53.567,53.567,0,1,0-65.6.031l.047.036a51.2,51.2,0,0,1,11.487,12.092c5.17,7.778,11.336,19.711,11.35,32.389a91.026,91.026,0,0,1-.355,9.6,51.587,51.587,0,0,1,9.17-.7A76.663,76.663,0,0,1,490.914,151.362Z" transform="translate(-267.518 4011.929)" fill="none" stroke="#383021" stroke-width="1"/>
    <path id="Path_683" data-name="Path 683" d="M688.217,284.8c2.45-2.229,5.64-4.806,8.474-7.041,9.486-7.481,21.423-9.936,30.574-10.588a61.51,61.51,0,0,1,19.242,1.892,53.567,53.567,0,1,0-40.59-51.538c0,.02,0,.039,0,.059a51.186,51.186,0,0,1-2.4,16.5c-2.916,8.873-8.481,21.1-18.436,28.948-3.012,2.375-5.921,4.623-8.8,6.635A49,49,0,0,1,688.217,284.8" transform="translate(-431.171 3904.602)" fill="#fff"/>
    <path id="Path_684" data-name="Path 684" d="M688.217,284.8c2.45-2.229,5.64-4.806,8.474-7.041,9.486-7.481,21.423-9.936,30.574-10.588a61.51,61.51,0,0,1,19.242,1.892,53.567,53.567,0,1,0-40.59-51.538c0,.02,0,.039,0,.059a51.186,51.186,0,0,1-2.4,16.5c-2.916,8.873-8.481,21.1-18.436,28.948-3.012,2.375-5.921,4.623-8.8,6.635A49,49,0,0,1,688.217,284.8Z" transform="translate(-431.171 3904.602)" fill="none" stroke="#383021" stroke-width="1"/>
    <path id="Path_685" data-name="Path 685" d="M221.566,266.992c-2.961-2.055-5.951-4.362-9.051-6.806-9.955-7.85-15.519-20.073-18.436-28.946a51.207,51.207,0,0,1-2.4-16.507c0-.02,0-.04,0-.059a53.535,53.535,0,1,0-39.009,51.118,45.426,45.426,0,0,1,12.847-1.669c9.407.106,24.125,1.9,35.388,10.785,2.948,2.325,5.721,4.591,8.25,6.914a61.765,61.765,0,0,1,12.41-14.829" transform="translate(-40.653 3906.481)" fill="#fff"/>
    <path id="Path_686" data-name="Path 686" d="M221.566,266.992c-2.961-2.055-5.951-4.362-9.051-6.806-9.955-7.85-15.519-20.073-18.436-28.946a51.207,51.207,0,0,1-2.4-16.507c0-.02,0-.04,0-.059a53.535,53.535,0,1,0-39.009,51.118,45.426,45.426,0,0,1,12.847-1.669c9.407.106,24.125,1.9,35.388,10.785,2.948,2.325,5.721,4.591,8.25,6.914A61.765,61.765,0,0,1,221.566,266.992Z" transform="translate(-40.653 3906.481)" fill="none" stroke="#383021" stroke-width="1"/>
    <path id="Path_687" data-name="Path 687" d="M137.355,547.063c-12.4,2.648-25.359-.874-34.049-4.3a51.2,51.2,0,0,1-14.236-8.692l-.046-.038a53.532,53.532,0,1,0,13.746,64.146A61.5,61.5,0,0,1,113.6,582.167c6.345-6.626,15.857-14.245,27.671-16.77,3.743-.8,7.322-1.5,10.786-1.959a61.171,61.171,0,0,1-4.112-18.873c-3.346.915-6.89,1.706-10.591,2.5" transform="translate(14.49 3668.405)" fill="#fff"/>
    <path id="Path_688" data-name="Path 688" d="M137.355,547.063c-12.4,2.648-25.359-.874-34.049-4.3a51.2,51.2,0,0,1-14.236-8.692l-.046-.038a53.532,53.532,0,1,0,13.746,64.146A61.5,61.5,0,0,1,113.6,582.167c6.345-6.626,15.857-14.245,27.671-16.77,3.743-.8,7.322-1.5,10.786-1.959a61.171,61.171,0,0,1-4.112-18.873C144.6,545.481,141.056,546.272,137.355,547.063Z" transform="translate(14.49 3668.405)" fill="none" stroke="#383021" stroke-width="1"/>
    <path id="Path_689" data-name="Path 689" d="M854.47,535.585a53.564,53.564,0,0,0-76.911-6.8l-.045.039a51.189,51.189,0,0,1-14.1,8.918c-8.635,3.559-21.538,7.288-33.977,4.837-3.277-.646-6.73-1.357-9.736-2.093a49.335,49.335,0,0,1-3.946,18.794c3.235.409,6.574,1.008,10.057,1.694,11.853,2.335,21.485,9.8,27.934,16.327a61.494,61.494,0,0,1,11.084,15.842,53.566,53.566,0,1,0,89.633-57.556" transform="translate(-457.226 3672.239)" fill="#fff"/>
    <path id="Path_690" data-name="Path 690" d="M854.47,535.585a53.564,53.564,0,0,0-76.911-6.8l-.045.039a51.189,51.189,0,0,1-14.1,8.918c-8.635,3.559-21.538,7.288-33.977,4.837-3.277-.646-6.73-1.357-9.736-2.093a49.335,49.335,0,0,1-3.946,18.794c3.235.409,6.574,1.008,10.057,1.694,11.853,2.335,21.485,9.8,27.934,16.327a61.494,61.494,0,0,1,11.084,15.842,53.566,53.566,0,1,0,89.633-57.556Z" transform="translate(-457.226 3672.239)" fill="none" stroke="#383021" stroke-width="1"/>
    <path id="Path_691" data-name="Path 691" d="M316.1,714.2c-5.574,11.387-16.349,19.4-24.407,24.126a51.213,51.213,0,0,1-15.628,5.828l-.058.012a53.533,53.533,0,1,0,58.939,28.807,61.5,61.5,0,0,1-5.907-18.41c-1.293-9.083-1.411-21.269,3.9-32.121,1.769-3.614,3.519-7.011,5.4-10.15a61.229,61.229,0,0,1-17.466-8.443c-1.391,3.349-3.024,6.78-4.771,10.35" transform="translate(-138.823 3548.007)" fill="#fff"/>
    <path id="Path_692" data-name="Path 692" d="M316.1,714.2c-5.574,11.387-16.349,19.4-24.407,24.126a51.213,51.213,0,0,1-15.628,5.828l-.058.012a53.533,53.533,0,1,0,58.939,28.807,61.5,61.5,0,0,1-5.907-18.41c-1.293-9.083-1.411-21.269,3.9-32.121,1.769-3.614,3.519-7.011,5.4-10.15a61.229,61.229,0,0,1-17.466-8.443C319.485,707.2,317.851,710.626,316.1,714.2Z" transform="translate(-138.823 3548.007)" fill="none" stroke="#383021" stroke-width="1"/>
    <path id="Path_693" data-name="Path 693" d="M620.087,721.11c5.761,12,4.923,25.563,3.215,34.81a55.527,55.527,0,0,1-5.361,15.232,53.566,53.566,0,1,0,58.915-27.894l-.058-.013a51.2,51.2,0,0,1-15.585-5.945c-8.022-4.783-18.737-12.88-24.226-24.308-1.724-3.59-3.362-7.387-4.73-10.753a62.18,62.18,0,0,1-17.378,8.894c1.779,3.058,3.528,6.48,5.207,9.976" transform="translate(-388.763 3549.067)" fill="#fff"/>
    <path id="Path_694" data-name="Path 694" d="M620.087,721.11c5.761,12,4.923,25.563,3.215,34.81a55.527,55.527,0,0,1-5.361,15.232,53.566,53.566,0,1,0,58.915-27.894l-.058-.013a51.2,51.2,0,0,1-15.585-5.945c-8.022-4.783-18.737-12.88-24.226-24.308-1.724-3.59-3.362-7.387-4.73-10.753a62.18,62.18,0,0,1-17.378,8.894C616.659,714.191,618.408,717.614,620.087,721.11Z" transform="translate(-388.763 3549.067)" fill="none" stroke="#383021" stroke-width="1"/>
    <path id="Path_695" data-name="Path 695" d="M527.344,477.571a56.333,56.333,0,1,1-56.333-56.333,56.333,56.333,0,0,1,56.333,56.333" transform="translate(-258.522 3734.518)" fill="#fff" stroke="#463f2f" stroke-width="1"/>
    <path id="Path_696" data-name="Path 696" d="M869.177,214.969a54.294,54.294,0,1,1-54.295-54.295,54.295,54.295,0,0,1,54.295,54.295" transform="translate(-486.811 3906.481)" fill="#fff" stroke="#463f2f" stroke-width="1"/>
    <path id="Path_697" data-name="Path 697" d="M534.752,55.3A54.294,54.294,0,1,1,480.457,1,54.295,54.295,0,0,1,534.752,55.3" transform="translate(-266.102 4011.859)" fill="#fff" stroke="#463f2f" stroke-width="1"/>
    <path id="Path_698" data-name="Path 698" d="M189.66,214.969a54.294,54.294,0,1,1-54.295-54.295,54.295,54.295,0,0,1,54.295,54.295" transform="translate(-38.354 3906.481)" fill="#fff" stroke="#463f2f" stroke-width="1"/>
    <path id="Path_699" data-name="Path 699" d="M109.589,573.56a54.294,54.294,0,1,1-54.295-54.295,54.295,54.295,0,0,1,54.295,54.295" transform="translate(14.49 3669.824)" fill="#fff" stroke="#463f2f" stroke-width="1"/>
    <path id="Path_700" data-name="Path 700" d="M339.774,869.369a54.294,54.294,0,1,1-54.295-54.295,54.295,54.295,0,0,1,54.295,54.295" transform="translate(-137.424 3474.601)" fill="#fff" stroke="#463f2f" stroke-width="1"/>
    <path id="Path_701" data-name="Path 701" d="M718.487,869.369a54.294,54.294,0,1,1-54.295-54.295,54.295,54.295,0,0,1,54.295,54.295" transform="translate(-387.36 3474.601)" fill="#fff" stroke="#463f2f" stroke-width="1"/>
    <path id="Path_702" data-name="Path 702" d="M951.818,567.749a54.294,54.294,0,1,1-54.295-54.295,54.295,54.295,0,0,1,54.295,54.295" transform="translate(-541.35 3673.659)" fill="#fff"/>
    <ellipse id="Ellipse_14" data-name="Ellipse 14" cx="54.295" cy="54.295" rx="54.295" ry="54.295" transform="translate(301.879 4187.113)" fill="none" stroke="#463f2f" stroke-width="1"/>
    <path id="Path_703" data-name="Path 703" d="M223.277,200.375v-.8a3.188,3.188,0,0,0-3.188-3.188h-5.579a3.188,3.188,0,0,0-3.188,3.188v.8h-2.79a3.188,3.188,0,0,0-3.188,3.188v11.956a3.188,3.188,0,0,0,3.188,3.188h9.337a7.806,7.806,0,0,1-1.181-1.594h-5.765V201.969h12.753v3.589a7.774,7.774,0,0,1,1.594.205v-3.794h.8a1.594,1.594,0,0,1,1.594,1.594v3.214a7.808,7.808,0,0,1,1.594,1.355v-4.569a3.188,3.188,0,0,0-3.188-3.188Zm-10.362,0h8.768v-.8a1.594,1.594,0,0,0-1.594-1.594h-5.579a1.594,1.594,0,0,0-1.594,1.594Zm-4.384,1.594h.8v15.144h-.8a1.594,1.594,0,0,1-1.594-1.594V203.563a1.594,1.594,0,0,1,1.594-1.594" transform="translate(-121.287 3896.11)" fill="#383021" fill-rule="evenodd"/>
    <path id="Path_704" data-name="Path 704" d="M253.395,240.176a1.594,1.594,0,1,1,1.594,1.594,1.594,1.594,0,0,1-1.594-1.594" transform="translate(-152.999 3868.265)" fill="#383021"/>
    <path id="Path_705" data-name="Path 705" d="M244.018,233.988a4.782,4.782,0,1,1,9.565,0,10.067,10.067,0,0,1-1.265,4.4,7.117,7.117,0,0,1-1.435,1.888,2.883,2.883,0,0,1-4.165,0,7.117,7.117,0,0,1-1.435-1.888,10.066,10.066,0,0,1-1.265-4.4M248.8,230.8a3.188,3.188,0,0,0-3.188,3.188,8.525,8.525,0,0,0,1.07,3.631,5.549,5.549,0,0,0,1.1,1.464,1.317,1.317,0,0,0,2.04,0,5.548,5.548,0,0,0,1.1-1.464,8.524,8.524,0,0,0,1.07-3.631A3.188,3.188,0,0,0,248.8,230.8" transform="translate(-146.811 3874.453)" fill="#383021" fill-rule="evenodd"/>
    <text id="Israël_tours" data-name="Israël tours" transform="translate(96.115 4135.375)" fill="#f0771d" font-size="11" font-family="Inter" font-weight="500"><tspan x="-29" y="0">Is</tspan><tspan y="0" letter-spacing="-0.004em">r</tspan><tspan y="0">aël tours</tspan></text>
    <text id="Israël_tours-2" data-name="Israël tours" transform="translate(214 4081.979)" fill="#f0771d" font-size="11" font-family="Inter" font-weight="500"><tspan x="-29" y="0">Is</tspan><tspan y="0" letter-spacing="-0.004em">r</tspan><tspan y="0">aël tours</tspan></text>
    <text id="Providing_workshops" data-name="Providing
workshops" transform="translate(328.45 4130.375)" fill="#f0771d" font-size="11" font-family="Inter" font-weight="500"><tspan x="-24" y="0">Providing</tspan><tspan x="-28" y="15">workshops</tspan></text>
    <path id="Path_670" data-name="Path 670" d="M910.417,200.579a7.943,7.943,0,0,0-9.8,12.494v4a2.107,2.107,0,0,0,2.11,2.1l.091,0a2.86,2.86,0,1,0,5.709,0,2.108,2.108,0,0,0,2.2-2.014c0-.029,0-.059,0-.088v-4a7.972,7.972,0,0,0-.306-12.495m-4.749,20.02a1.255,1.255,0,0,1-1.237-1.427h2.474a1.258,1.258,0,0,1-1.237,1.427m3.437-3.529a.486.486,0,0,1-.486.486h-5.9a.486.486,0,0,1-.486-.486v-.941h6.875v.941Zm.326-5.039a.808.808,0,0,0-.326.649v1.831h-2.629v-3.776l1.965-3.4a.809.809,0,1,0-1.4-.809l-1.373,2.378-1.373-2.378a.809.809,0,1,0-1.4.809l1.965,3.4v3.776h-2.629V212.68a.809.809,0,0,0-.326-.649,6.344,6.344,0,0,1-.108-10.077,6.415,6.415,0,0,1,7.647-.083,6.349,6.349,0,0,1-.012,10.16Z" transform="translate(-578.326 3889.448)" fill="#383021"/>
    <rect id="Rectangle_1150" data-name="Rectangle 1150" width="395.658" height="386.084" transform="translate(15.151 4012.52)" fill="none"/>
    <text id="Discipleship" transform="translate(358.45 4258.526)" fill="#f0771d" font-size="11" font-family="Inter" font-weight="500"><tspan x="-31" y="0">Discipleship</tspan></text>
    <path id="Path_671" data-name="Path 671" d="M992.1,561.225a6.256,6.256,0,0,0-2.965-3.406,4.469,4.469,0,1,0-5.836,0,6.236,6.236,0,0,0-1.537,1.147,4.479,4.479,0,0,0-1.772,0,6.236,6.236,0,0,0-1.537-1.147,4.468,4.468,0,1,0-5.836,0,6.254,6.254,0,0,0-2.966,3.406,2.263,2.263,0,0,0,2.134,3.023H976.5a4.471,4.471,0,0,0,1.46,2.477A6.253,6.253,0,0,0,975,570.131a2.263,2.263,0,0,0,2.134,3.023h7.495a2.263,2.263,0,0,0,2.135-3.023,6.254,6.254,0,0,0-2.966-3.406,4.47,4.47,0,0,0,1.46-2.477h4.715a2.264,2.264,0,0,0,2.133-3.022Zm-8.538-6.789a2.657,2.657,0,1,1,2.657,2.656,2.656,2.656,0,0,1-2.657-2.656m-10.686,0a2.656,2.656,0,1,1,2.656,2.656,2.656,2.656,0,0,1-2.656-2.656m-1.52,7.4a4.447,4.447,0,0,1,6.826-2.058,4.475,4.475,0,0,0-1.681,2.656h-4.715a.451.451,0,0,1-.453-.449.445.445,0,0,1,.024-.148Zm13.7,8.905a.451.451,0,0,1-.281.573.459.459,0,0,1-.148.024h-7.5a.451.451,0,0,1-.453-.45.457.457,0,0,1,.024-.148,4.44,4.44,0,0,1,8.354,0Zm-6.833-7.4A2.656,2.656,0,1,1,980.881,566a2.657,2.657,0,0,1-2.656-2.656Zm11.747-.905h-4.715a4.474,4.474,0,0,0-1.681-2.656,4.446,4.446,0,0,1,6.826,2.058.452.452,0,0,1-.429.6Z" transform="translate(-623.719 3665.842)" fill="#383021"/>
    <rect id="Rectangle_1151" data-name="Rectangle 1151" width="395.658" height="386.084" transform="translate(15.151 4012.52)" fill="none"/>
    <text id="Leadership_development" data-name="Leadership
development" transform="translate(277 4353.905)" fill="#f0771d" font-size="11" font-family="Inter" font-weight="500"><tspan x="-29" y="0">Leadership</tspan><tspan x="-34" y="15">development</tspan></text>
    <path id="Path_672" data-name="Path 672" d="M757.558,864.638a3.072,3.072,0,0,1-1.593-4.174,2.713,2.713,0,0,1-1.463-3.831,2.567,2.567,0,0,0-.391-.193l1.38-1.379a2.573,2.573,0,0,0-3.639-3.639l-4.449,4.447a2.575,2.575,0,0,0-4.216-.879l-3.742,3.743a6.742,6.742,0,0,0,0,9.535l4.294,4.293a6.742,6.742,0,0,0,9.535,0h0l4.284-4.284a2.576,2.576,0,0,0,0-3.639m-1.092,2.548-4.284,4.284a5.2,5.2,0,0,1-7.351,0h0l-4.294-4.294a5.2,5.2,0,0,1,0-7.351l3.742-3.742a1.029,1.029,0,1,1,1.456,1.455l-2.911,2.911,1.092,1.092,2.911-2.911,6.115-6.114a1.03,1.03,0,1,1,1.458,1.454l-5.164,5.164-.411.409,1.092,1.092,2.527-2.527a1.029,1.029,0,0,1,1.456,1.456l-1.206,1.206-1.321,1.321,1.092,1.092,1.32-1.321a1.029,1.029,0,0,1,1.456,1.456l-1.322,1.321,1.092,1.092a1.029,1.029,0,0,1,1.456,1.456Z" transform="translate(-471.552 3461.042)" fill="#383021"/>
    <text id="Raising_support" data-name="Raising
support" transform="translate(147.115 4354.285)" fill="#f0771d" font-size="11" font-family="Inter" font-weight="500"><tspan x="-19" y="0">Raising</tspan><tspan x="-20" y="15">support</tspan></text>
    <path id="Path_673" data-name="Path 673" d="M380.1,860.415v-3.121a.713.713,0,0,0-.215-.51l-6.088-5.942a.713.713,0,0,0-1,.006l-1.637,1.635-2.635.327a3.681,3.681,0,0,0-.608.133,3.621,3.621,0,0,0-.6-.132l-2.635-.327-1.641-1.641a.713.713,0,0,0-1-.005l-6.06,5.949a.711.711,0,0,0-.216.508v3.118a7.022,7.022,0,0,0,2.242,4.982l.792.791c-.007.072-.011.144-.011.217a6.712,6.712,0,0,1,1.849,5.125,4.209,4.209,0,0,1,4.54,1.335,2.216,2.216,0,0,0,3.779,1.462l.58-.575a2.2,2.2,0,0,0,.568-.969,10.07,10.07,0,0,1,5.647-1.788,4.374,4.374,0,0,1,1.338-4.613c0-.073,0-.145-.011-.217l.77-.77a7.105,7.105,0,0,0,2.261-4.978m-19.662,6.545a.788.788,0,0,1,0-1.115l.576-.576a.789.789,0,0,1,1.122,1.108l-.007.007-.576.576a.789.789,0,0,1-1.115,0m2.04,3.324a.789.789,0,0,1-1.159-1.07c.014-.015.028-.03.043-.043l1.77-1.771a.788.788,0,1,1,1.127,1.1Zm3.323.924a.788.788,0,0,1-1.129-1.1l.6-.6a.789.789,0,0,1,1.108,1.123Zm2.716,1.532-.575.576a.789.789,0,1,1-1.116-1.115l.576-.576a.789.789,0,1,1,1.116,1.116Zm6.9-5.8a.788.788,0,0,1-1.114,0l-4.734-4.734a.713.713,0,0,0-1.008,1.009l5.932,5.933a.789.789,0,0,1-1.116,1.116l-5.933-5.933a.713.713,0,0,0-1.013,1.005l0,0,4.734,4.733a.789.789,0,0,1-1.114,1.117l-.311-.314a8.368,8.368,0,0,1-3.843-3.01,3.74,3.74,0,0,0-5.9-3.6l-.562.561-.436-.434a5.567,5.567,0,0,1-1.824-3.913v-2.879l5.342-5.244,1.315,1.316a.714.714,0,0,0,.417.2l1.667.206-.007.008L361.7,858.3a.713.713,0,0,0,0,1.009c.013.013.026.025.039.036a6.37,6.37,0,0,0,1.505.923,2.723,2.723,0,0,0,3.155-.4l.583-.582a4.127,4.127,0,0,0,2.391.755c.087,0,.173,0,.26-.009l5.787,5.79a.789.789,0,0,1,0,1.116Zm1.408-2.55-.413.412-5.192-5.2a4.158,4.158,0,0,0,1.085-.782.713.713,0,0,0-1.009-1.009,2.727,2.727,0,0,1-3.856,0,.714.714,0,0,0-1.009,0l-1.044,1.045c-.562.562-1.468.2-2.078-.153l3.614-3.614a3.719,3.719,0,0,1,1.772-.865l2.88-.357a.713.713,0,0,0,.416-.2l1.311-1.311,5.368,5.241v2.872a5.65,5.65,0,0,1-1.846,3.92" transform="translate(-219.631 3459.752)" fill="#383021"/>
    <text id="Itinerant_speaking" data-name="Itinerant
speaking" transform="translate(69.115 4253.841)" fill="#f0771d" font-size="11" font-family="Inter" font-weight="500"><tspan x="-21" y="0">Itine</tspan><tspan y="0" letter-spacing="-0.004em">r</tspan><tspan y="0">ant</tspan><tspan x="-23" y="15">speaking</tspan></text>
    <path id="Path_674" data-name="Path 674" d="M144.271,574.431l-1.309-3.746A10.286,10.286,0,0,0,126.1,559.04a10.287,10.287,0,0,0-7.059,15.215L117.727,578a.78.78,0,0,0,.89,1.023l4.379-.866a10.28,10.28,0,0,0,12.892-2.446A10.774,10.774,0,0,0,139,574.589l4.379.866a.78.78,0,0,0,.888-1.023Zm-16.3,3.449a8.711,8.711,0,0,1-4.443-1.215.78.78,0,0,0-.55-.094l-3.327.657.979-2.8a.78.78,0,0,0-.074-.669,8.723,8.723,0,1,1,7.414,4.124Zm13.4-7.022.979,2.8L139.021,573a.777.777,0,0,0-.549.094,8.853,8.853,0,0,1-1.289.624,10.282,10.282,0,0,0-8.743-14.837,8.728,8.728,0,0,1,13,11.306.779.779,0,0,0-.074.669Z" transform="translate(-61.514 3653.981)" fill="#383021"/>
    <path id="Path_675" data-name="Path 675" d="M128.891,590.448a.78.78,0,0,0-.78.78v2.244a.78.78,0,0,0,1.561,0v-2.244a.78.78,0,0,0-.78-.78" transform="translate(-68.397 3630.785)" fill="#383021"/>
    <path id="Path_676" data-name="Path 676" d="M137.655,585.627a.78.78,0,0,0-.78.78v5.522a.78.78,0,0,0,1.561,0v-5.522a.78.78,0,0,0-.78-.78" transform="translate(-74.181 3633.967)" fill="#383021"/>
    <path id="Path_677" data-name="Path 677" d="M146.42,590.448a.78.78,0,0,0-.78.78h0v2.244a.78.78,0,0,0,1.56,0v-2.244a.78.78,0,0,0-.78-.78" transform="translate(-79.966 3630.785)" fill="#383021"/>
    <path id="Path_678" data-name="Path 678" d="M155.184,587.905a.78.78,0,0,0-.78.78v3.973a.78.78,0,0,0,1.56,0v-3.973a.78.78,0,0,0-.78-.78" transform="translate(-85.75 3632.463)" fill="#383021"/>
    <path id="Path_679" data-name="Path 679" d="M163.949,592.275a.78.78,0,0,0-.78.78v1a.78.78,0,0,0,1.561,0v-1a.78.78,0,0,0-.78-.78" transform="translate(-91.534 3629.579)" fill="#383021"/>
    <rect id="Rectangle_1154" data-name="Rectangle 1154" width="395.658" height="386.084" transform="translate(15.151 4012.52)" fill="none"/>
    <text id="Father_s_house" data-name="Father’s house" transform="translate(214 4204.142)" fill="#f0771d" font-size="11" font-family="Inter" font-weight="500"><tspan x="-38" y="0">Father’s house</tspan></text>
    <text id="The_Ministry" data-name="The Ministry" transform="translate(214 4223.094)" fill="#383021" font-size="14" font-family="Inter" font-weight="600"><tspan x="-42" y="0">The Minist</tspan><tspan y="0" letter-spacing="0.017em">r</tspan><tspan y="0">y</tspan></text>
    <ellipse id="Ellipse_13" data-name="Ellipse 13" cx="52.27" cy="52.27" rx="52.27" ry="52.27" transform="translate(160.22 4159.819)" fill="none" stroke="#f0771d" stroke-width="1"/>
    <path id="Path_680" data-name="Path 680" d="M576.813,39.478H564.233a2.516,2.516,0,0,0-2.514,2.513V55.962c0,.852.008,1.706,0,2.558a2.878,2.878,0,0,0,1.445,2.723,6.216,6.216,0,0,0,3.125.46h10.525A1.307,1.307,0,0,0,578.12,60.4V40.783a1.307,1.307,0,0,0-1.306-1.305m-12.7,20.542L564.055,60a1.325,1.325,0,0,1-.627-.621l-.025-.062c-.019-.047-.039-.1-.053-.14a1.243,1.243,0,0,1-.058-.385,1.328,1.328,0,0,1,1.332-1.323h11.922v.714H565.514c-.434,0-.768.208-.768.617,0,.393.334.617.768.617h11.031v.714H564.624a1.194,1.194,0,0,1-.372-.055c-.046-.015-.095-.035-.143-.054m12.437-4.127H564.624a2.89,2.89,0,0,0-1.332.326V41.991a.941.941,0,0,1,.94-.939h12.313Z" transform="translate(-356.938 4000.725)" fill="#383021"/>
    <rect id="Rectangle_1155" data-name="Rectangle 1155" width="395.658" height="386.084" transform="translate(15.151 4012.52)" fill="none"/>
  </g>
</svg>
